<?xml version="1.0" encoding="UTF-8"?>
<svg version="1.1" xmlns="http://www.w3.org/2000/svg" width="512" height="512" >
<path d="M0 0 C0.72631119 -0.0033284 1.45262238 -0.0066568 2.20094299 -0.01008606 C3.74015671 -0.015158 5.27938145 -0.0174943 6.81860352 -0.01733398 C9.17808096 -0.01951891 11.53708986 -0.0376669 13.89648438 -0.05664062 C15.38932131 -0.05957477 16.88216048 -0.06155942 18.375 -0.0625 C19.43756264 -0.07327827 19.43756264 -0.07327827 20.52159119 -0.08427429 C25.52508288 -0.06085462 25.52508288 -0.06085462 27.75390625 2.16796875 C28.35225179 3.68853493 28.88897281 5.23408963 29.37890625 6.79296875 C29.63929688 7.61023438 29.8996875 8.4275 30.16796875 9.26953125 C30.36132812 9.89601563 30.5546875 10.5225 30.75390625 11.16796875 C33.4393004 11.70263103 36.12623253 12.22091558 38.81640625 12.73046875 C39.56857422 12.88193359 40.32074219 13.03339844 41.09570312 13.18945312 C45.87104287 14.07836918 49.9847912 14.51680937 54.75390625 13.16796875 C56.43481587 11.15633582 56.43481587 11.15633582 57.19140625 8.60546875 C57.49949219 7.77917969 57.80757813 6.95289063 58.125 6.1015625 C58.33253906 5.46347656 58.54007812 4.82539062 58.75390625 4.16796875 C66.29011697 5.19162267 73.52066616 7.13818502 80.81640625 9.23046875 C81.75701904 9.50004395 82.69763184 9.76961914 83.66674805 10.04736328 C90.46893933 12.02548529 90.46893933 12.02548529 92.75390625 13.16796875 C92.75390625 17.12796875 92.75390625 21.08796875 92.75390625 25.16796875 C95.64485328 26.51287454 98.54086465 27.84405154 101.44140625 29.16796875 C102.25802734 29.54953125 103.07464844 29.93109375 103.91601562 30.32421875 C104.71201172 30.68515625 105.50800781 31.04609375 106.328125 31.41796875 C107.05604248 31.753125 107.78395996 32.08828125 108.53393555 32.43359375 C111.09006756 33.27917223 113.0776813 33.40292161 115.75390625 33.16796875 C117.62991426 31.68120253 117.62991426 31.68120253 119.06640625 29.66796875 C119.57816406 29.01828125 120.08992188 28.36859375 120.6171875 27.69921875 C121.17986328 26.94125 121.17986328 26.94125 121.75390625 26.16796875 C125.91426954 26.75932791 128.85170909 28.16249683 132.45703125 30.29296875 C133.51921875 30.916875 134.58140625 31.54078125 135.67578125 32.18359375 C136.7740625 32.8384375 137.87234375 33.49328125 139.00390625 34.16796875 C140.11765625 34.8228125 141.23140625 35.47765625 142.37890625 36.15234375 C150.57738095 40.99144345 150.57738095 40.99144345 151.75390625 42.16796875 C151.97877277 44.94132249 152.01052362 46.6849243 150.69140625 49.16796875 C149.35957675 52.00920503 149.71711905 53.2075557 150.75390625 56.16796875 C152.79159102 58.11236896 154.68693261 59.71246205 156.94140625 61.35546875 C157.50666016 61.79310547 158.07191406 62.23074219 158.65429688 62.68164062 C162.1562475 65.30910644 165.379321 67.31871268 169.75390625 68.16796875 C171.76498662 67.28158733 171.76498662 67.28158733 173.31640625 65.66796875 C174.9453125 64.13671875 174.9453125 64.13671875 176.75390625 63.16796875 C183.28880047 65.04939368 187.40148451 70.30235995 192.06640625 74.98046875 C192.99775391 75.88345703 193.92910156 76.78644531 194.88867188 77.71679688 C195.76845703 78.59400391 196.64824219 79.47121094 197.5546875 80.375 C198.36075439 81.17397705 199.16682129 81.9729541 199.99731445 82.79614258 C201.75390625 85.16796875 201.75390625 85.16796875 202.14526367 87.7800293 C201.75390625 90.16796875 201.75390625 90.16796875 199.69140625 93.16796875 C197.52602417 95.89116179 197.52602417 95.89116179 197.83984375 98.4375 C199.05959356 102.08111161 201.11433584 104.85575609 203.44140625 107.85546875 C204.0746582 108.72655273 204.0746582 108.72655273 204.72070312 109.61523438 C207.65291712 113.44082277 210.00846387 115.23346124 214.75390625 116.16796875 C216.83723958 115.33463542 216.83723958 115.33463542 218.75390625 114.16796875 C221.1328125 113.73828125 221.1328125 113.73828125 223.75390625 114.16796875 C225.74609375 116.58984375 225.74609375 116.58984375 227.62890625 119.91796875 C227.9640625 120.50199463 228.29921875 121.08602051 228.64453125 121.68774414 C229.34229034 122.90472386 230.03329518 124.12559902 230.71777344 125.35009766 C231.70939294 127.08987118 232.76557518 128.79236547 233.82421875 130.4921875 C234.46101563 131.51957031 235.0978125 132.54695312 235.75390625 133.60546875 C236.62015625 134.99572266 236.62015625 134.99572266 237.50390625 136.4140625 C238.95575499 139.61266676 239.21677637 141.69400671 238.75390625 145.16796875 C235.81640625 147.29296875 235.81640625 147.29296875 232.75390625 149.16796875 C231.79640235 151.46327669 231.63759276 152.72213725 232.26708984 155.13500977 C232.55922363 155.80717529 232.85135742 156.47934082 233.15234375 157.171875 C233.466875 157.91244141 233.78140625 158.65300781 234.10546875 159.41601562 C234.44320313 160.17978516 234.7809375 160.94355469 235.12890625 161.73046875 C235.78314822 163.25234803 236.43681724 164.77447378 237.08984375 166.296875 C237.3842334 166.9679126 237.67862305 167.6389502 237.98193359 168.33032227 C238.64705393 169.91361157 239.21084179 171.53877537 239.75390625 173.16796875 C240.59695313 173.14476562 241.44 173.1215625 242.30859375 173.09765625 C243.40429688 173.07960937 244.5 173.0615625 245.62890625 173.04296875 C246.71945312 173.01976562 247.81 172.9965625 248.93359375 172.97265625 C251.75390625 173.16796875 251.75390625 173.16796875 253.75390625 175.16796875 C255.22598421 179.53387519 256.29232742 184.02001646 257.44140625 188.48046875 C257.77462891 189.71732422 258.10785156 190.95417969 258.45117188 192.22851562 C258.76119141 193.42154297 259.07121094 194.61457031 259.390625 195.84375 C259.67639404 196.93598877 259.96216309 198.02822754 260.2565918 199.15356445 C260.76443614 202.23179424 260.70371888 204.21064273 259.75390625 207.16796875 C257.90625 208.3984375 257.90625 208.3984375 255.69140625 209.35546875 C252.55784157 211.12139378 252.55784157 211.12139378 251.15625 214.28515625 C251.12606942 216.98416216 251.36741839 219.49568127 251.75390625 222.16796875 C251.89957031 223.22757813 252.04523438 224.2871875 252.1953125 225.37890625 C252.81665725 229.42009338 253.45964592 233.28518776 254.75390625 237.16796875 C255.46417969 237.22855469 256.17445313 237.28914062 256.90625 237.3515625 C257.82535156 237.43535156 258.74445313 237.51914063 259.69140625 237.60546875 C261.06619141 237.72728516 261.06619141 237.72728516 262.46875 237.8515625 C264.75390625 238.16796875 264.75390625 238.16796875 265.75390625 239.16796875 C265.86713059 241.59287246 265.918075 243.98823737 265.921875 246.4140625 C265.9252034 247.14037369 265.9285318 247.86668488 265.93196106 248.61500549 C265.937033 250.15421921 265.9393693 251.69344395 265.93920898 253.23266602 C265.94139391 255.59214346 265.9595419 257.95115236 265.97851562 260.31054688 C265.98144977 261.80338381 265.98343442 263.29622298 265.984375 264.7890625 C265.99156052 265.49743759 265.99874603 266.20581268 266.00614929 266.93565369 C265.98272962 271.93914538 265.98272962 271.93914538 263.75390625 274.16796875 C262.23334007 274.76631429 260.68778537 275.30303531 259.12890625 275.79296875 C258.31164062 276.05335938 257.494375 276.31375 256.65234375 276.58203125 C256.02585937 276.77539062 255.399375 276.96875 254.75390625 277.16796875 C254.2470202 279.70843333 253.74823751 282.25005751 253.25390625 284.79296875 C253.11082031 285.50582031 252.96773438 286.21867187 252.8203125 286.953125 C251.11413271 294.13498714 251.11413271 294.13498714 252.87890625 300.85546875 C255.37116009 302.60004644 258.00118244 303.88336431 260.75390625 305.16796875 C261.31045361 312.1602274 259.26801831 318.31596182 257.31640625 324.98046875 C256.99091797 326.12451172 256.66542969 327.26855469 256.33007812 328.44726562 C253.92972542 336.8163304 253.92972542 336.8163304 252.75390625 339.16796875 C248.79390625 339.16796875 244.83390625 339.16796875 240.75390625 339.16796875 C239.79303489 341.06251699 238.83531656 342.95866456 237.87890625 344.85546875 C237.34523438 345.91121094 236.8115625 346.96695312 236.26171875 348.0546875 C232.86147076 354.81186116 232.86147076 354.81186116 232.75390625 362.16796875 C234.86684024 364.4811309 237.21516114 366.34162661 239.75390625 368.16796875 C238.47693794 372.33586744 236.9074034 375.96573462 234.75 379.75 C233.88665039 381.27077148 233.88665039 381.27077148 233.00585938 382.82226562 C232.40708984 383.86447266 231.80832031 384.90667969 231.19140625 385.98046875 C230.58876953 387.04201172 229.98613281 388.10355469 229.36523438 389.19726562 C224.91106306 397.01081194 224.91106306 397.01081194 223.75390625 398.16796875 C220.44358807 397.78600896 217.31632609 397.34205108 214.12890625 396.35546875 C211.6072464 395.90532637 211.6072464 395.90532637 209.40625 397.78515625 C206.53786692 400.36205416 204.27467779 403.03700386 201.94140625 406.10546875 C201.15121094 407.12511719 200.36101562 408.14476562 199.546875 409.1953125 C197.68181483 412.28749286 197.15610399 413.64757767 197.75390625 417.16796875 C198.41390625 417.99296875 199.07390625 418.81796875 199.75390625 419.66796875 C201.75390625 422.16796875 201.75390625 422.16796875 202.15283203 424.5065918 C201.37291252 429.70971454 196.73005564 432.9616819 193.11132812 436.51733398 C191.63501196 437.97444248 190.19035347 439.45845734 188.74609375 440.94726562 C187.81796875 441.87216797 186.88984375 442.79707031 185.93359375 443.75 C185.08522949 444.59796143 184.23686523 445.44592285 183.36279297 446.31958008 C180.1815404 448.57348829 178.57582201 448.69895197 174.75390625 448.16796875 C171.37890625 446.16796875 171.37890625 446.16796875 168.75390625 444.16796875 C163.08980641 446.69658475 158.92117107 449.50737501 154.41796875 453.77734375 C152.75390625 455.16796875 152.75390625 455.16796875 150.75390625 455.16796875 C149.69372981 459.72672743 150.0095193 461.91602555 151.75390625 466.16796875 C151.65332031 468.58251953 151.65332031 468.58251953 150.75390625 471.16796875 C148.42480469 473.12841797 148.42480469 473.12841797 145.36328125 474.97265625 C144.26113281 475.6378125 143.15898437 476.30296875 142.0234375 476.98828125 C141.4454541 477.32504883 140.8674707 477.66181641 140.27197266 478.00878906 C138.51036545 479.03919063 136.77091768 480.10103819 135.03125 481.16796875 C126.55211764 486.20214512 126.55211764 486.20214512 123.02832031 486.05126953 C120.75390625 485.16796875 120.75390625 485.16796875 118.44140625 482.04296875 C116.00879476 478.78747463 116.00879476 478.78747463 112.25390625 478.91796875 C107.02396611 479.99000629 102.26868042 482.54525527 97.51171875 484.890625 C94.75390625 486.16796875 94.75390625 486.16796875 92.75390625 486.16796875 C92.81191406 486.99941406 92.86992187 487.83085937 92.9296875 488.6875 C92.97480469 489.77417969 93.01992188 490.86085938 93.06640625 491.98046875 C93.12441406 493.05941406 93.18242187 494.13835937 93.2421875 495.25 C92.75390625 498.16796875 92.75390625 498.16796875 90.55297852 499.74780273 C86.02663497 502.04433482 81.27396932 503.14796498 76.37890625 504.41796875 C75.363125 504.69898438 74.34734375 504.98 73.30078125 505.26953125 C67.79383365 506.71421101 63.28183576 507.87347339 57.75390625 506.16796875 C55.94140625 502.66796875 55.94140625 502.66796875 54.75390625 499.16796875 C51.66072038 497.62137581 48.49441575 498.25303867 45.12890625 498.48046875 C44.40703125 498.52679443 43.68515625 498.57312012 42.94140625 498.62084961 C38.01732166 498.9769347 33.48065601 499.69085945 28.75390625 501.16796875 C28.69332031 501.87824219 28.63273437 502.58851563 28.5703125 503.3203125 C28.44462891 504.69896484 28.44462891 504.69896484 28.31640625 506.10546875 C28.23519531 507.02199219 28.15398437 507.93851562 28.0703125 508.8828125 C27.75390625 511.16796875 27.75390625 511.16796875 26.75390625 512.16796875 C22.08760511 512.45873842 17.41863534 512.48194354 12.74414062 512.51806641 C11.17074803 512.53463185 9.59743088 512.5619303 8.02441406 512.60009766 C5.75936755 512.65479744 3.49608625 512.67672649 1.23046875 512.69140625 C0.52725494 512.71407562 -0.17595886 512.736745 -0.90048218 512.76010132 C-2.89208984 512.75146484 -2.89208984 512.75146484 -6.24609375 512.16796875 C-8.50680158 509.42097594 -9.18225113 507.43929989 -9.99609375 503.98046875 C-11.00510603 500.83827178 -11.00510603 500.83827178 -14.43359375 499.85546875 C-16.32078125 499.51515625 -16.32078125 499.51515625 -18.24609375 499.16796875 C-19.91671875 498.85859375 -19.91671875 498.85859375 -21.62109375 498.54296875 C-27.93194293 497.83183407 -27.93194293 497.83183407 -34.24609375 498.16796875 C-37.03215095 500.5945347 -38.00312342 503.72589707 -39.24609375 507.16796875 C-46.69147595 506.68581297 -53.57376474 505.24587387 -60.74609375 503.23046875 C-62.22722656 502.83311523 -62.22722656 502.83311523 -63.73828125 502.42773438 C-70.98723909 500.42682341 -70.98723909 500.42682341 -73.24609375 498.16796875 C-73.44140625 495.56640625 -73.44140625 495.56640625 -73.37109375 492.54296875 C-73.35304687 491.54007812 -73.335 490.5371875 -73.31640625 489.50390625 C-73.29320312 488.73304688 -73.27 487.9621875 -73.24609375 487.16796875 C-75.51570975 486.01966898 -77.78670153 484.87424897 -80.05859375 483.73046875 C-81.02249023 483.24223633 -81.02249023 483.24223633 -82.00585938 482.74414062 C-87.29978913 480.0834609 -91.24469353 478.43095469 -97.24609375 479.16796875 C-99.74149746 482.03412361 -99.74149746 482.03412361 -101.24609375 485.16796875 C-106.26476361 484.67259716 -109.79655942 483.65305585 -114.14453125 481.11328125 C-115.20027344 480.49839844 -116.25601563 479.88351562 -117.34375 479.25 C-118.42527344 478.60417969 -119.50679688 477.95835937 -120.62109375 477.29296875 C-121.72582031 476.65488281 -122.83054687 476.01679688 -123.96875 475.359375 C-132.11560108 470.55944675 -132.11560108 470.55944675 -133.24609375 467.16796875 C-132.93671875 466.56984375 -132.62734375 465.97171875 -132.30859375 465.35546875 C-130.85247619 462.35757965 -130.77489245 460.46637784 -131.24609375 457.16796875 C-132.87377322 455.03514737 -134.16663689 453.80214577 -136.24609375 452.16796875 C-137.53580078 451.13349609 -137.53580078 451.13349609 -138.8515625 450.078125 C-143.90798519 445.86584233 -143.90798519 445.86584233 -149.96484375 443.8125 C-152.43978527 443.96845587 -152.43978527 443.96845587 -154.24609375 446.16796875 C-156.24609375 448.16796875 -156.24609375 448.16796875 -158.5534668 448.56689453 C-163.77972632 447.79259876 -167.02447601 443.15972099 -170.59545898 439.52539062 C-172.05256748 438.04907446 -173.53658234 436.60441597 -175.02539062 435.16015625 C-175.95029297 434.23203125 -176.87519531 433.30390625 -177.828125 432.34765625 C-178.67608643 431.49929199 -179.52404785 430.65092773 -180.39770508 429.77685547 C-182.64831873 426.60025297 -182.79023362 424.98376989 -182.24609375 421.16796875 C-181.54484375 420.15734375 -180.84359375 419.14671875 -180.12109375 418.10546875 C-179.19296875 416.65140625 -179.19296875 416.65140625 -178.24609375 415.16796875 C-179.41614891 410.65155584 -182.2240132 407.08932543 -184.99609375 403.41796875 C-185.41375 402.82886719 -185.83140625 402.23976563 -186.26171875 401.6328125 C-188.4809945 398.6895657 -189.87381006 397.27888111 -193.4453125 396.21484375 C-196.47824991 396.16408329 -197.61962357 396.81237124 -200.24609375 398.16796875 C-202.62939453 398.08325195 -202.62939453 398.08325195 -205.24609375 397.16796875 C-207.20654297 394.73120117 -207.20654297 394.73120117 -209.05078125 391.5234375 C-209.37901886 390.95724197 -209.70725647 390.39104645 -210.04544067 389.80769348 C-210.73396587 388.61100149 -211.41430433 387.40956668 -212.08691406 386.20385742 C-213.1184155 384.36025558 -214.17972088 382.53649644 -215.24609375 380.71289062 C-215.91200642 379.54662738 -216.57613112 378.37934104 -217.23828125 377.2109375 C-217.8401123 376.1489917 -218.44194336 375.0870459 -219.06201172 373.99291992 C-220.24609375 371.16796875 -220.24609375 371.16796875 -220.12548828 368.9387207 C-219.24609375 367.16796875 -219.24609375 367.16796875 -216.18359375 364.79296875 C-213.01843325 362.51851 -213.01843325 362.51851 -212.81640625 359.5234375 C-213.38498507 355.08335382 -215.0978631 351.77379009 -217.18359375 347.85546875 C-217.74336914 346.76395508 -217.74336914 346.76395508 -218.31445312 345.65039062 C-219.95589359 342.18707243 -219.95589359 342.18707243 -222.24609375 339.16796875 C-224.09896877 339.09570373 -225.95443253 339.08415655 -227.80859375 339.10546875 C-229.32646484 339.11900391 -229.32646484 339.11900391 -230.875 339.1328125 C-231.65746094 339.14441406 -232.43992188 339.15601563 -233.24609375 339.16796875 C-235.71639098 332.86162084 -237.72435229 326.49881133 -239.55859375 319.98046875 C-239.84798828 319.00916016 -240.13738281 318.03785156 -240.43554688 317.03710938 C-240.69916016 316.09673828 -240.96277344 315.15636719 -241.234375 314.1875 C-241.47712158 313.34292236 -241.71986816 312.49834473 -241.9699707 311.62817383 C-242.3182045 308.52547538 -241.77676826 306.87273193 -240.24609375 304.16796875 C-239.07046875 303.71421875 -237.89484375 303.26046875 -236.68359375 302.79296875 C-234.98203125 301.98859375 -234.98203125 301.98859375 -233.24609375 301.16796875 C-231.81459244 295.66056718 -232.47897604 290.8355469 -233.49609375 285.35546875 C-233.61855469 284.59298828 -233.74101562 283.83050781 -233.8671875 283.04492188 C-234.22097123 281.06408327 -234.72453812 279.11138436 -235.24609375 277.16796875 C-238.69668061 274.86757751 -241.18704877 274.69414125 -245.24609375 274.16796875 C-247.18653117 272.22753133 -246.40991548 268.5692314 -246.4140625 265.921875 C-246.4173909 265.19556381 -246.4207193 264.46925262 -246.42414856 263.72093201 C-246.4292205 262.18171829 -246.4315568 260.64249355 -246.43139648 259.10327148 C-246.43358141 256.74379404 -246.4517294 254.38478514 -246.47070312 252.02539062 C-246.47363727 250.53255369 -246.47562192 249.03971452 -246.4765625 247.546875 C-246.48374802 246.83849991 -246.49093353 246.13012482 -246.49833679 245.40028381 C-246.47491712 240.39679212 -246.47491712 240.39679212 -244.24609375 238.16796875 C-242.72552757 237.56962321 -241.17997287 237.03290219 -239.62109375 236.54296875 C-238.80382812 236.28257812 -237.9865625 236.0221875 -237.14453125 235.75390625 C-236.51804688 235.56054688 -235.8915625 235.3671875 -235.24609375 235.16796875 C-234.7392077 232.62750417 -234.24042501 230.08587999 -233.74609375 227.54296875 C-233.60300781 226.83011719 -233.45992187 226.11726562 -233.3125 225.3828125 C-231.60632021 218.20095036 -231.60632021 218.20095036 -233.37109375 211.48046875 C-235.86334759 209.73589106 -238.49336994 208.45257319 -241.24609375 207.16796875 C-241.80264111 200.1757101 -239.76020581 194.01997568 -237.80859375 187.35546875 C-237.48310547 186.21142578 -237.15761719 185.06738281 -236.82226562 183.88867188 C-234.42191292 175.5196071 -234.42191292 175.5196071 -233.24609375 173.16796875 C-232.51003906 173.26078125 -231.77398437 173.35359375 -231.015625 173.44921875 C-225.40242253 174.03387512 -225.40242253 174.03387512 -220.54296875 171.73828125 C-219.19003245 169.60612215 -218.2047442 167.50420745 -217.24609375 165.16796875 C-216.85679687 164.33910156 -216.4675 163.51023438 -216.06640625 162.65625 C-213.82667763 157.61299901 -212.76742264 153.67268649 -213.24609375 148.16796875 C-213.84421875 147.87921875 -214.44234375 147.59046875 -215.05859375 147.29296875 C-217.24609375 146.16796875 -217.24609375 146.16796875 -220.24609375 144.16796875 C-219.30272478 137.66501195 -215.70856993 132.56603115 -212.43359375 126.98046875 C-211.80388672 125.87509766 -211.17417969 124.76972656 -210.52539062 123.63085938 C-209.91115234 122.57705078 -209.29691406 121.52324219 -208.6640625 120.4375 C-208.10485107 119.47432861 -207.54563965 118.51115723 -206.96948242 117.51879883 C-205.18982818 115.09121833 -204.09032484 114.0883221 -201.24609375 113.16796875 C-199.89523568 113.79836918 -198.56356699 114.47048292 -197.24609375 115.16796875 C-193.70263479 115.56222063 -191.94551365 115.71435102 -189.0859375 113.48046875 C-187.10106122 111.06764174 -185.13753293 108.65507589 -183.24609375 106.16796875 C-182.68792969 105.45253906 -182.12976563 104.73710938 -181.5546875 104 C-179.0915272 100.53009843 -178.08856346 99.1131505 -178.80859375 94.79296875 C-180.11980784 92.10721 -180.11980784 92.10721 -182.24609375 90.16796875 C-182.64282227 87.86279297 -182.64282227 87.86279297 -182.24609375 85.16796875 C-179.73736264 81.70004667 -176.69621491 78.77358867 -173.65844727 75.76367188 C-172.18921742 74.29857659 -170.75803505 72.8023053 -169.32617188 71.30078125 C-168.40126953 70.37265625 -167.47636719 69.44453125 -166.5234375 68.48828125 C-165.25874634 67.20848389 -165.25874634 67.20848389 -163.96850586 65.90283203 C-161.24609375 64.16796875 -161.24609375 64.16796875 -157.55297852 64.29638672 C-154.30083882 65.15353982 -152.85490727 66.18886883 -150.24609375 68.16796875 C-146.38083964 67.78400311 -143.79900034 65.61579382 -140.74609375 63.35546875 C-139.80765625 62.66839844 -138.86921875 61.98132812 -137.90234375 61.2734375 C-133.41573466 57.81196674 -133.41573466 57.81196674 -130.37109375 53.16796875 C-130.21220382 50.62572982 -131.09051565 49.41114976 -132.24609375 47.16796875 C-132.671875 44.78125 -132.671875 44.78125 -132.24609375 42.16796875 C-129.82421875 40.17578125 -129.82421875 40.17578125 -126.49609375 38.29296875 C-125.62005493 37.79023437 -125.62005493 37.79023437 -124.72631836 37.27734375 C-123.50933864 36.57958466 -122.28846348 35.88857982 -121.06396484 35.20410156 C-119.32419132 34.21248206 -117.62169703 33.15629982 -115.921875 32.09765625 C-114.89449219 31.46085937 -113.86710938 30.8240625 -112.80859375 30.16796875 C-111.88175781 29.59046875 -110.95492187 29.01296875 -110 28.41796875 C-106.79508513 26.96325562 -104.72680835 26.6970771 -101.24609375 27.16796875 C-100.07046875 28.68390625 -100.07046875 28.68390625 -98.87109375 30.23046875 C-96.51665155 33.53748519 -96.51665155 33.53748519 -92.80859375 33.48046875 C-86.94603448 32.27413444 -77.59973485 28.52160985 -73.24609375 24.16796875 C-73.17382873 22.31509373 -73.16228155 20.45962997 -73.18359375 18.60546875 C-73.19261719 17.59355469 -73.20164063 16.58164062 -73.2109375 15.5390625 C-73.22253906 14.75660156 -73.23414063 13.97414063 -73.24609375 13.16796875 C-43.27448976 3.65377075 -43.27448976 3.65377075 -38.24609375 6.16796875 C-37.17578125 8.015625 -37.17578125 8.015625 -36.12109375 10.23046875 C-35.59128906 11.33068359 -35.59128906 11.33068359 -35.05078125 12.453125 C-34.78523437 13.01902344 -34.5196875 13.58492187 -34.24609375 14.16796875 C-31.72445615 14.05293606 -29.20428185 13.92622098 -26.68359375 13.79296875 C-25.62688477 13.7465625 -25.62688477 13.7465625 -24.54882812 13.69921875 C-19.88089508 13.4410842 -15.67034805 12.80823453 -11.24609375 11.16796875 C-8.94570251 7.71738189 -8.77226625 5.22701373 -8.24609375 1.16796875 C-6.30565633 -0.77246867 -2.6473564 0.00414702 0 0 Z M-126.24609375 106.16796875 C-127.01566406 106.81507812 -127.78523438 107.4621875 -128.578125 108.12890625 C-132.58590515 111.51597858 -136.09903874 115.09241146 -139.484375 119.1015625 C-140.63784241 120.45452095 -141.82227955 121.78181375 -143.0390625 123.078125 C-149.95160844 130.47526179 -155.61708131 138.7791846 -161.24609375 147.16796875 C-161.66036621 147.78414063 -162.07463867 148.4003125 -162.50146484 149.03515625 C-191.07099947 192.23142867 -198.48269943 247.22305095 -188.83300781 297.32470703 C-187.37340335 304.39565279 -185.44551928 311.29456516 -183.24609375 318.16796875 C-183.02195801 318.87469727 -182.79782227 319.58142578 -182.56689453 320.30957031 C-174.05722424 346.72137691 -160.28320814 370.35307005 -141.46484375 390.76171875 C-139.16289707 393.25819614 -136.92618833 395.80566944 -134.68359375 398.35546875 C-130.78808211 402.66596617 -126.75116862 406.50524511 -122.24609375 410.16796875 C-121.75512207 410.57128418 -121.26415039 410.97459961 -120.75830078 411.39013672 C-77.06097019 447.14487329 -23.13942082 462.87883182 33.00488281 457.44506836 C81.95991052 451.78357488 131.45046679 426.71826652 162.75390625 388.16796875 C163.46933594 387.3171875 164.18476563 386.46640625 164.921875 385.58984375 C199.43271052 344.19996396 215.35781039 291.76871661 211.4453125 238.1796875 C211.04690929 233.81536146 210.44224279 229.49507165 209.75390625 225.16796875 C209.64095215 224.42015137 209.52799805 223.67233398 209.41162109 222.90185547 C203.06801383 182.3520232 183.85869187 145.77757754 155.75390625 116.16796875 C155.26615723 115.6476709 154.7784082 115.12737305 154.27587891 114.59130859 C141.1506827 100.67113263 126.45204745 89.46831131 109.75390625 80.16796875 C109.13805664 79.81895508 108.52220703 79.46994141 107.88769531 79.11035156 C98.78462945 73.96884898 89.53821372 69.83054374 79.75390625 66.16796875 C78.68269531 65.73742187 77.61148437 65.306875 76.5078125 64.86328125 C55.54747459 56.76096575 32.79115481 53.73772425 10.44140625 53.79296875 C9.19425339 53.79378448 9.19425339 53.79378448 7.92190552 53.7946167 C-42.443464 53.94538775 -88.61259546 73.1008782 -126.24609375 106.16796875 Z " fill="#000000" transform="translate(246.24609375,-0.16796875)"/>
<path d="M0 0 C4.10760095 7.90318681 7.73715602 15.99483702 11.30371094 24.15161133 C12.25685521 26.32815414 13.21810833 28.50100087 14.1796875 30.67382812 C14.79216147 32.07009556 15.40415803 33.46657253 16.015625 34.86328125 C16.30101135 35.50606522 16.58639771 36.14884918 16.88043213 36.81111145 C18.34574553 40.18484719 19.44435717 43.3593278 20 47 C20.66 47 21.32 47 22 47 C22.17002029 46.45694717 22.34004059 45.91389435 22.51521301 45.35438538 C24.34713876 39.66455128 26.54154687 34.24808165 29.01171875 28.80859375 C29.38480667 27.97787857 29.75789459 27.14716339 30.14228821 26.29127502 C31.31997704 23.671505 32.50362302 21.05447851 33.6875 18.4375 C34.49323612 16.64796542 35.29857835 14.85825342 36.10351562 13.06835938 C38.06446695 8.71017732 40.03076086 4.35444311 42 0 C44.29199177 0.14063135 46.58359186 0.28765943 48.875 0.4375 C50.15117187 0.51871094 51.42734375 0.59992188 52.7421875 0.68359375 C56 1 56 1 58 2 C57.32052538 6.98885642 55.27857675 11.26934278 53.24609375 15.82421875 C52.86695328 16.68449173 52.48781281 17.54476471 52.09718323 18.43110657 C50.88198293 21.18533985 49.65984791 23.93643256 48.4375 26.6875 C47.64212231 28.48742886 46.84719622 30.28755734 46.05273438 32.08789062 C45.66107086 32.9740506 45.26940735 33.86021057 44.86587524 34.77322388 C44.07859126 36.55517505 43.29243519 38.33762499 42.50741577 40.12057495 C40.5816627 44.48211506 38.62408756 48.8229054 36.59033203 53.13525391 C36.02343407 54.35544975 36.02343407 54.35544975 35.44508362 55.60029602 C34.73500819 57.12518944 34.01288191 58.64455352 33.276474 60.15690613 C31.23399963 64.57750181 30.5821437 67.31934224 32 72 C32.84230009 74.19028488 33.75543803 76.35412618 34.72265625 78.4921875 C35.52993164 80.29042969 35.52993164 80.29042969 36.35351562 82.125 C36.9230245 83.37506953 37.49268788 84.62506867 38.0625 85.875 C38.63671202 87.1481471 39.21028613 88.42158211 39.78320312 89.6953125 C41.18255757 92.7997627 42.58833608 95.90113264 44 99 C47.81158422 97.16908105 51.14833345 94.85187055 54.5625 92.375 C55.12001953 91.97410156 55.67753906 91.57320313 56.25195312 91.16015625 C57.43246695 90.30997572 58.60280065 89.44550062 59.76312256 88.56796265 C62 87 62 87 64.69720459 85.54043579 C69.30710746 82.81226669 72.38196842 80.67292835 74.27818298 75.54013062 C75.16275259 71.2951689 75.48970032 67.00398234 75.82421875 62.6875 C75.98347565 61.10664862 76.14718998 59.52624055 76.31513977 57.94628906 C76.74249923 53.81345122 77.10956735 49.67744008 77.46380615 45.53778076 C77.83698541 41.30410536 78.26766743 37.07631609 78.69335938 32.84765625 C79.51821303 24.56976114 80.27938136 16.287617 81 8 C82.60198928 8.47381986 84.20345086 8.9494241 85.8046875 9.42578125 C86.69655762 9.69044189 87.58842773 9.95510254 88.50732422 10.2277832 C91.067828 11.02101273 93.54022623 11.93409803 96 13 C96.08166814 18.9260447 95.84033914 24.62907182 95.125 30.5078125 C95.03621582 31.27753387 94.94743164 32.04725525 94.85595703 32.84030151 C94.57546507 35.26912652 94.28842442 37.69710517 94 40.125 C93.71198554 42.56007531 93.42557997 44.99528865 93.14404297 47.43112183 C92.96985138 48.93753527 92.79202684 50.4435349 92.60986328 51.94900513 C92.10085574 56.3420756 91.91917236 60.58839846 92 65 C92.93457031 64.29617187 93.86914062 63.59234375 94.83203125 62.8671875 C99.21528304 59.56999616 103.60658339 56.28363043 108 53 C108.82822266 52.3802832 109.65644531 51.76056641 110.50976562 51.12207031 C113.02406781 49.24360205 115.54270106 47.37108632 118.0625 45.5 C118.84665283 44.91331543 119.63080566 44.32663086 120.4387207 43.72216797 C124.81968568 40.47870849 129.2062386 37.59741654 134 35 C135.62918007 36.26547013 137.25320642 37.53757728 138.875 38.8125 C139.77992188 39.52019531 140.68484375 40.22789063 141.6171875 40.95703125 C144 43 144 43 146 46 C122.17578125 63.5546875 122.17578125 63.5546875 119.82958984 65.27636719 C118.26483814 66.43410635 116.70921666 67.60427939 115.16259766 68.78613281 C111.14302018 71.8327074 107.18495066 74.50706042 102.72265625 76.8671875 C95.92512992 80.69389133 90.30855445 83.94792697 87.80712891 91.69384766 C85.95578166 99.97931589 85.46281449 108.48032778 85.17919922 116.9440918 C85 120 85 120 84 123 C105.95488597 123.54743363 105.95488597 123.54743363 125.015625 115.171875 C128.09198189 111.29430579 130.39467882 107.03389402 132.60449219 102.61669922 C134.93935096 98.23863479 137.9847692 94.42545821 141 90.5 C142.15474277 88.94414636 143.30577761 87.38553402 144.453125 85.82421875 C145.31647461 84.65318604 145.31647461 84.65318604 146.19726562 83.45849609 C148.11661828 80.84096072 150.02025842 78.2124757 151.921875 75.58203125 C152.56253906 74.7003125 153.20320313 73.81859375 153.86328125 72.91015625 C155.10034297 71.20695533 156.33230675 69.50003745 157.55859375 67.7890625 C158.11160156 67.02980469 158.66460937 66.27054687 159.234375 65.48828125 C159.96479004 64.47568237 159.96479004 64.47568237 160.70996094 63.44262695 C161.13567383 62.96656006 161.56138672 62.49049316 162 62 C162.66 62 163.32 62 164 62 C165.9453125 64.046875 165.9453125 64.046875 168.125 66.75 C168.84945313 67.63171875 169.57390625 68.5134375 170.3203125 69.421875 C172 72 172 72 172 76 C170.69740876 78.13997132 169.37692249 80.07072677 167.875 82.0625 C167.43776611 82.65812744 167.00053223 83.25375488 166.55004883 83.86743164 C165.57842955 85.18849146 164.60234302 86.50627365 163.62255859 87.82128906 C161.87067554 90.17365204 160.13168098 92.53517564 158.39453125 94.8984375 C155.50213389 98.83250775 152.60138341 102.76027436 149.6940918 106.68334961 C147.43657085 109.77048266 145.21920028 112.88520483 143 116 C144.67002075 115.82609741 144.67002075 115.82609741 146.3737793 115.64868164 C150.56516844 115.21269216 154.75679282 114.77899988 158.94848633 114.34594727 C160.75128411 114.15938445 162.55402035 113.97222591 164.35668945 113.78442383 C174.56351292 112.7215083 184.76089672 111.70310935 195 111 C195.83739781 113.1234016 196.66980283 115.2487728 197.5 117.375 C197.9640625 118.55835938 198.428125 119.74171875 198.90625 120.9609375 C200 124 200 124 200 126 C197.36333272 127.31833364 195.03837691 127.41251234 192.10083008 127.72436523 C190.24298637 127.92478676 190.24298637 127.92478676 188.34761047 128.1292572 C187.6834997 128.19912275 187.01938892 128.2689883 186.33515358 128.34097099 C184.25332301 128.56030136 182.17210894 128.78479753 180.09098816 129.01075745 C174.17301929 129.65234628 168.25405246 130.2844876 162.3347168 130.91333008 C158.71381848 131.29836139 155.0936066 131.68939391 151.47373009 132.08390999 C150.09818186 132.23255539 148.72237926 132.37886716 147.34632301 132.52273369 C135.90634393 133.05621052 135.90634393 133.05621052 125.99951172 137.84423828 C125.48146973 138.57884277 124.96342773 139.31344727 124.4296875 140.0703125 C123.84316406 140.885 123.25664062 141.6996875 122.65234375 142.5390625 C122.06582031 143.39242187 121.47929687 144.24578125 120.875 145.125 C120.28074219 145.95515625 119.68648438 146.7853125 119.07421875 147.640625 C115.52055644 152.64556221 112.20371584 157.76524921 109 163 C113.06586048 165.20383433 117.16414081 167.31817349 121.31079102 169.3659668 C122.70953563 170.07071827 124.09758146 170.79719175 125.47290039 171.54663086 C134.33381158 176.40200223 134.33381158 176.40200223 144.10351562 176.17333984 C147.79045236 174.81107109 151.24355546 173.04218723 154.70669556 171.19241333 C157.92509836 169.5189912 161.23351885 168.08242604 164.55522156 166.62779236 C167.1695635 165.48196399 169.77155076 164.31179547 172.37109375 163.1328125 C173.23460449 162.74125977 174.09811523 162.34970703 174.98779297 161.94628906 C175.85807129 161.55151367 176.72834961 161.15673828 177.625 160.75 C180.29160848 159.54322781 182.95858062 158.33726526 185.62582397 157.13189697 C187.26577338 156.39048597 188.9053092 155.64815917 190.54434204 154.90472412 C192.69394762 153.93131892 194.84667418 152.96514029 197 152 C197.65957703 151.69839966 198.31915405 151.39679932 198.99871826 151.08605957 C201.8562876 149.80724285 203.82997841 149 207 149 C207.66 154.28 208.32 159.56 209 165 C203.75552577 167.37174391 198.50847144 169.73765199 193.2590332 172.09838867 C191.47675174 172.90085908 189.6951625 173.70486887 187.91430664 174.51049805 C185.34185099 175.6739021 182.7668863 176.83159058 180.19140625 177.98828125 C179.40665421 178.34465164 178.62190216 178.70102203 177.81336975 179.06819153 C172.63595808 181.38493002 167.41267502 183.30538659 162 185 C162 185.66 162 186.32 162 187 C162.54305283 187.17002029 163.08610565 187.34004059 163.64561462 187.51521301 C169.33544872 189.34713876 174.75191835 191.54154687 180.19140625 194.01171875 C181.02212143 194.38480667 181.85283661 194.75789459 182.70872498 195.14228821 C185.328495 196.31997704 187.94552149 197.50362302 190.5625 198.6875 C192.35203458 199.49323612 194.14174658 200.29857835 195.93164062 201.10351562 C200.28982268 203.06446695 204.64555689 205.03076086 209 207 C208.34 212.28 207.68 217.56 207 223 C203.46785646 222.29357129 201.11717676 221.7602433 197.97021484 220.36108398 C197.21106781 220.02660751 196.45192078 219.69213104 195.66976929 219.34751892 C194.8583548 218.98404861 194.04694031 218.62057831 193.2109375 218.24609375 C192.35303619 217.86695328 191.49513489 217.48781281 190.61123657 217.09718323 C187.86369828 215.88202216 185.11922088 214.66013202 182.375 213.4375 C176.14188279 210.66991928 169.90451342 207.91231288 163.6595459 205.17156982 C161.86752939 204.3821597 160.07760316 203.58798943 158.28967285 202.78936768 C155.69060974 201.62963037 153.08461913 200.48699588 150.4765625 199.34765625 C149.30400406 198.81742104 149.30400406 198.81742104 148.10775757 198.276474 C142.38792764 195.80764909 139.7151235 195.94863692 133.86206055 198.21508789 C132.14176636 198.96133423 132.14176636 198.96133423 130.38671875 199.72265625 C129.77230423 199.98759384 129.15788971 200.25253143 128.52485657 200.52549744 C126.57706836 201.36662338 124.63227882 202.21444259 122.6875 203.0625 C121.36152097 203.63651339 120.03535095 204.2100858 118.70898438 204.78320312 C115.47043034 206.18370572 112.23452947 207.59022322 109 209 C113.23537888 215.48974085 117.69601059 221.77671985 122.3125 228 C122.94478516 228.85722656 123.57707031 229.71445312 124.22851562 230.59765625 C127.47188188 235.83786788 127.47188188 235.83786788 132.50956726 238.37927246 C133.62620255 238.49838989 134.74283783 238.61750732 135.89331055 238.74023438 C137.15519699 238.87707642 138.41708344 239.01391846 139.71720886 239.15490723 C141.10704138 239.30122722 142.49687811 239.44750714 143.88671875 239.59375 C145.30585817 239.74643427 146.72495048 239.89955701 148.14399719 240.05310059 C151.89123669 240.45759313 155.63898922 240.85710865 159.38690186 241.25531006 C165.36847589 241.89150591 171.34931817 242.5345129 177.33002663 243.17878723 C179.41585176 243.40266857 181.50193153 243.62404363 183.58805847 243.84509277 C184.86570572 243.98193481 186.14335297 244.11877686 187.4597168 244.25976562 C189.14063667 244.43844177 189.14063667 244.43844177 190.85551453 244.62072754 C193.92371964 244.99079944 196.95625418 245.46702768 200 246 C199.43174347 251.54050113 197.37113483 256.03715966 195 261 C183.62283279 260.54047653 172.38634283 259.43704468 161.08837891 258.01635742 C155.33928913 257.31004566 149.79250948 256.83851186 144 257 C151.43756331 267.34490644 158.9235758 277.65132291 166.50439453 287.8918457 C167.06368652 288.64812256 167.62297852 289.40439941 168.19921875 290.18359375 C168.69252686 290.84931396 169.18583496 291.51503418 169.6940918 292.20092773 C173.01462537 296.77542986 173.01462537 296.77542986 172.87890625 298.859375 C171.68792887 301.76006657 169.93514003 303.84014854 167.9375 306.25 C167.20402344 307.14203125 166.47054688 308.0340625 165.71484375 308.953125 C165.14894531 309.62859375 164.58304687 310.3040625 164 311 C159.55435227 306.84464643 156.06337515 302.2326623 152.5 297.3125 C151.58577271 296.06098145 151.58577271 296.06098145 150.65307617 294.78417969 C148.76318726 292.19341936 146.88031938 289.5977123 145 287 C144.42588379 286.20706543 143.85176758 285.41413086 143.26025391 284.59716797 C142.15159393 283.06465602 141.04486617 281.53074419 139.94018555 279.99536133 C138.85310323 278.4957519 137.75419777 277.00464406 136.64379883 275.5222168 C134.03450291 272.0103171 131.74162212 268.6396336 129.8671875 264.6796875 C127.5619989 260.18700853 125.46998346 256.58060901 121 254 C111.65570354 251.33977546 101.88131896 250.75981528 92.21704102 250.24267578 C89.65005134 250.04903628 87.45038963 249.74059283 85 249 C85.10957031 249.5878125 85.21914063 250.175625 85.33203125 250.78125 C85.49058594 251.6784375 85.64914062 252.575625 85.8125 253.5 C86.11994141 255.13001953 86.11994141 255.13001953 86.43359375 256.79296875 C86.96470178 260.08551019 87.06267531 263.28009763 87.09765625 266.61328125 C87.40189283 279.18578964 87.40189283 279.18578964 93.9765625 289.39453125 C98.17569812 292.7295129 102.67171664 295.550595 107.26464844 298.30859375 C111.5857746 300.98056466 115.57904859 304.05918148 119.625 307.125 C121.17343416 308.26880921 122.72421635 309.40944669 124.27734375 310.546875 C125.04546387 311.10955078 125.81358398 311.67222656 126.60498047 312.25195312 C133.38157297 317.19796763 140.18821764 322.10260794 147 327 C143.57933564 332.05663427 139.08997609 334.83507897 134 338 C120.2502403 328.11448688 106.53948338 318.17250197 93 308 C93.48043184 318.96709934 94.5982433 329.79622186 95.98364258 340.68505859 C96.7806978 347.16488616 97.18921708 353.4715538 97 360 C95.06532058 360.83986084 93.12714871 361.67168027 91.1875 362.5 C90.10855469 362.9640625 89.02960938 363.428125 87.91796875 363.90625 C85 365 85 365 82 365 C81.90865784 364.13191711 81.81731567 363.26383423 81.72320557 362.3694458 C80.85902376 354.18655281 79.97799994 346.00568695 79.07803726 337.82664871 C78.61595523 333.62169264 78.16040325 329.41624194 77.71972656 325.20898438 C77.29415898 321.14829297 76.85150247 317.08979656 76.39696503 313.03224945 C76.22660886 311.48438073 76.06240796 309.9358217 75.90448761 308.38663483 C75.68210781 306.21556526 75.43790151 304.04798824 75.18847656 301.87988281 C75.05523987 300.64522278 74.92200317 299.41056274 74.784729 298.13848877 C73.49333337 292.97360934 69.79900368 290.71840374 65.6640625 287.6875 C64.84679687 287.08679688 64.02953125 286.48609375 63.1875 285.8671875 C62.341875 285.25101562 61.49625 284.63484375 60.625 284 C59.78710938 283.38382812 58.94921875 282.76765625 58.0859375 282.1328125 C53.78756405 278.98337535 49.46493278 275.908751 45 273 C44.61585938 274.2478125 44.23171875 275.495625 43.8359375 276.78125 C42.5939336 280.52042783 41.10797475 284.03714579 39.4140625 287.59375 C38.95902344 288.56183594 38.50398437 289.52992188 38.03515625 290.52734375 C37.09070312 292.51828234 36.12689699 294.50014878 35.14453125 296.47265625 C34.69722656 297.44074219 34.24992188 298.40882813 33.7890625 299.40625 C33.37350098 300.26541016 32.95793945 301.12457031 32.52978516 302.00976562 C31.27281336 309.10441564 36.08270706 316.7276914 38.984375 323.06640625 C39.36305725 323.90356674 39.7417395 324.74072723 40.13189697 325.60325623 C41.33377154 328.25824719 42.54160356 330.91047197 43.75 333.5625 C53.12868782 354.22049543 53.12868782 354.22049543 57.078125 363.15234375 C57.52548004 364.15377159 57.52548004 364.15377159 57.98187256 365.1754303 C60 369.76740968 60 369.76740968 60 372 C54.72 372.66 49.44 373.32 44 374 C38.66373555 363.55800857 33.88479818 352.99607286 29.32055664 342.19921875 C28.48194193 340.21966222 27.63767198 338.24258933 26.79296875 336.265625 C26.05856567 334.52974121 26.05856567 334.52974121 25.30932617 332.75878906 C24.15776431 329.93401044 24.15776431 329.93401044 22 328 C21.54149658 329.03817871 21.08299316 330.07635742 20.6105957 331.14599609 C18.88907178 335.04225803 17.16435093 338.93709816 15.4387207 342.83154297 C14.69600228 344.50889838 13.95412123 346.18662485 13.21313477 347.86474609 C9.32243765 356.67456466 5.42001611 365.43894316 1 374 C-4.28 373.34 -9.56 372.68 -15 372 C-13.82018567 368.460557 -12.73175443 365.20855639 -11.24755859 361.84082031 C-10.91315765 361.07852112 -10.57875671 360.31622192 -10.23422241 359.53082275 C-9.87591339 358.7214325 -9.51760437 357.91204224 -9.1484375 357.078125 C-8.77071198 356.21926697 -8.39298645 355.36040894 -8.0038147 354.4755249 C-6.79670513 351.73257635 -5.58588303 348.99128451 -4.375 346.25 C-3.58439756 344.4545318 -2.79403094 342.65895974 -2.00390625 340.86328125 C-1.61422668 339.97950806 -1.22454712 339.09573486 -0.82305908 338.18518066 C-0.04075669 336.40724655 0.73826457 334.62786506 1.51397705 332.8470459 C3.41219951 328.50673781 5.36518166 324.21626144 7.47558594 319.97460938 C7.86249603 319.17472595 8.24940613 318.37484253 8.64804077 317.55072021 C9.37308892 316.05839153 10.12093605 314.57682073 10.89614868 313.10992432 C12.83117464 309.06593476 13.2569368 306.67733458 11.85668945 302.35473633 C11.2637626 300.8923576 10.64656033 299.43946988 10 298 C9.58468018 296.96609131 9.16936035 295.93218262 8.74145508 294.86694336 C8.33822021 293.95050049 7.93498535 293.03405762 7.51953125 292.08984375 C7.07802734 291.08115234 6.63652344 290.07246094 6.18164062 289.03320312 C5.72982422 288.01162109 5.27800781 286.99003906 4.8125 285.9375 C4.34908203 284.88111328 3.88566406 283.82472656 3.40820312 282.73632812 C2.2756523 280.15598036 1.13952397 277.57727399 0 275 C-4.03701853 275 -5.93080178 277.01427021 -8.9375 279.4375 C-10.09851668 280.35082213 -11.25998607 281.26356902 -12.421875 282.17578125 C-13.01291016 282.64322754 -13.60394531 283.11067383 -14.21289062 283.59228516 C-17.01528481 285.79974484 -19.84539447 287.96902557 -22.6875 290.125 C-23.66074219 290.87007813 -24.63398438 291.61515625 -25.63671875 292.3828125 C-28 294 -28 294 -30 294 C-30.05498657 295.24523437 -30.05498657 295.24523437 -30.11108398 296.515625 C-30.84561339 310.4035876 -32.49029875 324.18637701 -34.0625 338 C-34.34736532 340.52860529 -34.63187334 343.05725086 -34.91601562 345.5859375 C-35.60655992 351.72442863 -36.3015076 357.86240847 -37 364 C-41.18571892 365.29915238 -43.24594913 364.34691397 -47.25 362.5625 C-48.86648437 361.85287109 -48.86648437 361.85287109 -50.515625 361.12890625 C-51.33546875 360.75636719 -52.1553125 360.38382812 -53 360 C-52.30950497 353.3976844 -51.6153644 346.79575937 -50.91870117 340.1940918 C-50.68218595 337.94873722 -50.44650206 335.7032949 -50.21166992 333.45776367 C-49.8737751 330.22811778 -49.53288131 326.99880031 -49.19140625 323.76953125 C-49.08719864 322.76727005 -48.98299103 321.76500885 -48.87562561 320.7323761 C-48.77559738 319.79177841 -48.67556915 318.85118073 -48.57250977 317.88208008 C-48.48590591 317.05823318 -48.39930206 316.23438629 -48.31007385 315.38557434 C-47.98617631 312.89364647 -47.51984453 310.45787718 -47 308 C-56.5972551 314.79479399 -66.09566106 321.71728889 -75.5546875 328.703125 C-76.6679541 329.51813477 -76.6679541 329.51813477 -77.80371094 330.34960938 C-79.28580609 331.4633225 -80.7422862 332.611844 -82.17285156 333.79101562 C-87.31490994 337.96728224 -87.31490994 337.96728224 -90.69921875 338.12890625 C-93.51822031 336.74572892 -95.52528592 335.08816399 -97.8125 332.9375 C-98.60269531 332.20402344 -99.39289063 331.47054688 -100.20703125 330.71484375 C-100.79871094 330.14894531 -101.39039063 329.58304687 -102 329 C-97.69977812 324.39448854 -92.86912356 320.74129168 -87.8125 317 C-86.93263428 316.34427002 -86.05276855 315.68854004 -85.14624023 315.01293945 C-78.58980236 310.14041151 -71.97726746 305.34795668 -65.33520508 300.59301758 C-59.57083607 296.45398194 -53.96296507 292.14356696 -48.40625 287.73046875 C-46 286 -46 286 -44 286 C-44.0309375 284.80503906 -44.061875 283.61007812 -44.09375 282.37890625 C-44.09375 275.84782001 -43.26453258 269.41536386 -42.5 262.9375 C-42.35691406 261.69033203 -42.21382813 260.44316406 -42.06640625 259.15820312 C-41.71545379 256.10491668 -41.3598759 253.05224532 -41 250 C-41.76401123 250.13132324 -42.52802246 250.26264648 -43.31518555 250.39794922 C-49.46929373 251.44209097 -55.61194155 252.40660671 -61.8125 253.125 C-62.51052734 253.21136719 -63.20855469 253.29773438 -63.92773438 253.38671875 C-68.3270846 253.90428937 -72.58169006 254.08085796 -77 254 C-77.24234375 254.53496094 -77.4846875 255.06992187 -77.734375 255.62109375 C-79.32907601 258.61854103 -81.26295752 261.3186953 -83.25 264.0625 C-83.68473633 264.66682861 -84.11947266 265.27115723 -84.56738281 265.89379883 C-88.84271187 271.81892821 -93.16826038 277.70794958 -97.52197266 283.57568359 C-100.68043165 287.83355731 -103.80108346 292.11251697 -106.8671875 296.4375 C-107.81126465 297.75584839 -107.81126465 297.75584839 -108.77441406 299.10083008 C-109.98741463 300.79631043 -111.19030267 302.49908169 -112.38183594 304.2097168 C-112.9287207 304.96937744 -113.47560547 305.72903809 -114.0390625 306.51171875 C-114.51553223 307.18678467 -114.99200195 307.86185059 -115.48291016 308.55737305 C-117 310 -117 310 -121 310 C-123.140625 307.8125 -123.140625 307.8125 -125.25 305 C-125.95640625 304.071875 -126.6628125 303.14375 -127.390625 302.1875 C-127.92171875 301.465625 -128.4528125 300.74375 -129 300 C-127.41953027 295.00802854 -124.44605458 291.42267818 -121.25 287.375 C-120.08184217 285.87225172 -118.91523515 284.36829692 -117.75 282.86328125 C-117.14027344 282.07646973 -116.53054687 281.2896582 -115.90234375 280.47900391 C-112.62971039 276.21433256 -109.43771986 271.89081812 -106.25 267.5625 C-105.64188477 266.73991699 -105.03376953 265.91733398 -104.40722656 265.06982422 C-103.84487305 264.30557129 -103.28251953 263.54131836 -102.703125 262.75390625 C-101.95530762 261.73792358 -101.95530762 261.73792358 -101.19238281 260.70141602 C-99.94097394 259.00452408 -99.94097394 259.00452408 -99 257 C-100.25546631 257.15146484 -101.51093262 257.30292969 -102.80444336 257.45898438 C-107.49473177 258.02341233 -112.18583108 258.580838 -116.87719727 259.13623047 C-118.90151119 259.37685494 -120.9256051 259.6193383 -122.94946289 259.86376953 C-125.87068704 260.21624425 -128.79265609 260.56186577 -131.71484375 260.90625 C-132.60896469 261.0156189 -133.50308563 261.12498779 -134.42430115 261.2376709 C-139.99045074 261.88540906 -145.39591378 262.09931921 -151 262 C-151.83986084 260.06532058 -152.67168027 258.12714871 -153.5 256.1875 C-153.9640625 255.10855469 -154.428125 254.02960938 -154.90625 252.91796875 C-156 250 -156 250 -156 247 C-155.14302017 246.92420212 -154.28604034 246.84840424 -153.40309143 246.77030945 C-145.29192755 246.04387091 -137.18712848 245.26904078 -129.08570957 244.44072247 C-124.92115201 244.01661943 -120.75653967 243.6108663 -116.58618164 243.24780273 C-112.55445114 242.89611151 -108.53029294 242.49524248 -104.50663567 242.06110573 C-102.97788231 241.9046885 -101.44725683 241.76549399 -99.91528511 241.64459801 C-90.84498752 240.96151786 -90.84498752 240.96151786 -83.10188293 236.51223755 C-80.83495268 233.76866878 -78.8878312 231.01301564 -77 228 C-76.01118034 226.64896437 -75.01490019 225.30327345 -74.00390625 223.96875 C-73.18606596 222.81535278 -72.37208401 221.65920732 -71.5625 220.5 C-71.14291016 219.90703125 -70.72332031 219.3140625 -70.29101562 218.703125 C-68.49306836 216.15674993 -66.72915645 213.59373468 -65 211 C-68.5367975 209.32815176 -72.07869484 207.66986883 -75.6328125 206.03515625 C-78.53126672 204.69905858 -81.3924278 203.30786411 -84.2421875 201.87109375 C-85.61947472 201.20507334 -86.99706994 200.53968942 -88.375 199.875 C-89.00341797 199.54363037 -89.63183594 199.21226074 -90.27929688 198.87084961 C-95.20202818 196.55672866 -97.71129761 197.29806481 -102.49661255 199.01986694 C-106.81474762 200.71051492 -111.04204471 202.57925337 -115.265625 204.4921875 C-116.22088074 204.92000519 -117.17613647 205.34782288 -118.16033936 205.78860474 C-121.19205871 207.14669701 -124.22126882 208.51025808 -127.25 209.875 C-152.12003318 221.07271145 -152.12003318 221.07271145 -163 225 C-164.12360721 219.24151304 -165.05722992 213.88752766 -165 208 C-159.57409691 205.63358988 -154.14806757 203.26746959 -148.72192383 200.90161133 C-146.87813955 200.09765348 -145.03438908 199.2936181 -143.19067383 198.48950195 C-140.53215394 197.33003406 -137.87351037 196.17085015 -135.21484375 195.01171875 C-133.98942116 194.47716316 -133.98942116 194.47716316 -132.73924255 193.93180847 C-128.16626413 191.9384362 -123.587423 189.95991012 -119 188 C-120.97782417 186.02217583 -122.21101521 185.33385232 -124.7277832 184.24414062 C-125.49230301 183.91039429 -126.25682281 183.57664795 -127.04450989 183.23278809 C-128.28511421 182.69990173 -128.28511421 182.69990173 -129.55078125 182.15625 C-130.40173874 181.78649048 -131.25269623 181.41673096 -132.12944031 181.0357666 C-134.85522528 179.85273364 -137.5838424 178.67638983 -140.3125 177.5 C-142.14015545 176.70744964 -143.96763164 175.91448578 -145.79492188 175.12109375 C-155.34939005 170.94535407 -155.34939005 170.94535407 -165 167 C-164.88597936 164.72858891 -164.75841495 162.45785448 -164.625 160.1875 C-164.55539063 158.92292969 -164.48578125 157.65835938 -164.4140625 156.35546875 C-164 153 -164 153 -162 150 C-160.94949463 150.45737549 -159.89898926 150.91475098 -158.81665039 151.38598633 C-158.11567734 151.69117691 -157.41470428 151.99636749 -156.69248962 152.31080627 C-155.10403817 153.00261078 -153.51571393 153.69470747 -151.92750549 154.3870697 C-147.51628071 156.30988807 -143.10334847 158.22859766 -138.68701172 160.13964844 C-130.79764097 163.5591808 -122.92542656 166.98950781 -115.16015625 170.68359375 C-114.03665771 171.20912842 -112.91315918 171.73466309 -111.75561523 172.27612305 C-109.72667134 173.23133901 -107.70826539 174.20940147 -105.70336914 175.21411133 C-101.35367089 177.24038763 -98.29216041 178.55691601 -93.58984375 177.08984375 C-92.04556175 176.42561065 -90.51639246 175.72564897 -89 175 C-87.03054158 174.17176398 -85.06045092 173.34503032 -83.08984375 172.51953125 C-81.03732584 171.62114481 -78.98656192 170.71874127 -76.9375 169.8125 C-75.88111328 169.34908203 -74.82472656 168.88566406 -73.73632812 168.40820312 C-71.15598036 167.2756523 -68.57727399 166.13952397 -66 165 C-66 162.31007981 -67.01917181 161.3500363 -68.59765625 159.18359375 C-69.15259766 158.41853516 -69.70753906 157.65347656 -70.27929688 156.86523438 C-71.16198242 155.66350586 -71.16198242 155.66350586 -72.0625 154.4375 C-72.90458008 153.27637695 -72.90458008 153.27637695 -73.76367188 152.09179688 C-74.91670715 150.5091736 -76.08969771 148.9409238 -77.28076172 147.38671875 C-79 145 -79 145 -80.30126953 142.50390625 C-82.2633299 139.11570281 -84.04510057 136.65761735 -87.88088989 135.36727905 C-93.75896107 134.03177798 -99.75503502 133.61665643 -105.75 133.125 C-107.64232602 132.93915821 -109.53425934 132.74927495 -111.42578125 132.55541992 C-115.18909629 132.17544424 -118.95334801 131.81656815 -122.72070312 131.47900391 C-128.65342641 130.94676198 -134.57552552 130.33684862 -140.49707031 129.69287109 C-142.78153318 129.44480912 -145.06735495 129.2088718 -147.35449219 128.98681641 C-148.35125977 128.8841748 -149.34802734 128.7815332 -150.375 128.67578125 C-151.22835937 128.59239502 -152.08171875 128.50900879 -152.9609375 128.4230957 C-155 128 -155 128 -157 126 C-156.26950918 123.84744713 -155.5149728 121.70304136 -154.75 119.5625 C-154.33234375 118.36753906 -153.9146875 117.17257813 -153.484375 115.94140625 C-152 113 -152 113 -150.18408203 112.29457092 C-147.84999116 111.97976805 -145.90769082 112.06571067 -143.5703125 112.34545898 C-142.7026123 112.44563828 -141.83491211 112.54581757 -140.94091797 112.64903259 C-140.01166504 112.76356277 -139.08241211 112.87809296 -138.125 112.99609375 C-137.16352051 113.10848892 -136.20204102 113.22088409 -135.21142578 113.33668518 C-132.14010504 113.69684315 -129.07005486 114.06671927 -126 114.4375 C-122.92977288 114.80301467 -119.85932147 115.16648444 -116.78857422 115.52760315 C-114.87839435 115.75280038 -112.96854688 115.9808393 -111.05908203 116.21202087 C-110.19138184 116.31535233 -109.32368164 116.41868378 -108.4296875 116.52514648 C-107.66897949 116.61698715 -106.90827148 116.70882782 -106.12451172 116.80345154 C-104.09064217 116.99161427 -102.04255491 117 -100 117 C-109.88551312 103.2502403 -119.82749803 89.53948338 -130 76 C-128.50923566 72.7173068 -126.61379679 70.06922559 -124.375 67.25 C-123.74335937 66.45078125 -123.11171875 65.6515625 -122.4609375 64.828125 C-121.97882813 64.22484375 -121.49671875 63.6215625 -121 63 C-116.85585303 64.5095196 -114.99523437 67.4218484 -112.625 70.9375 C-111.73856515 72.21464392 -110.8504513 73.49062361 -109.9609375 74.765625 C-109.48495117 75.45076172 -109.00896484 76.13589844 -108.51855469 76.84179688 C-105.8251538 80.66971711 -103.0345337 84.42563135 -100.25 88.1875 C-99.37480713 89.37267212 -99.37480713 89.37267212 -98.48193359 90.58178711 C-97.27742808 92.21286784 -96.07250708 93.84364184 -94.8671875 95.47412109 C-91.65890386 99.81419726 -88.45400535 104.15676497 -85.25 108.5 C-84.65348633 109.30719482 -84.05697266 110.11438965 -83.44238281 110.94604492 C-82.88905273 111.6960376 -82.33572266 112.44603027 -81.765625 113.21875 C-81.27868164 113.87810547 -80.79173828 114.53746094 -80.29003906 115.21679688 C-79.15577103 116.78467986 -78.07343031 118.38985454 -77 120 C-74.33426775 120.5484711 -71.84484252 120.91087636 -69.1484375 121.16796875 C-68.37440582 121.25250809 -67.60037415 121.33704742 -66.80288696 121.42414856 C-64.32809697 121.69145684 -61.85180948 121.93967511 -59.375 122.1875 C-57.6977834 122.36528367 -56.02069747 122.54430477 -54.34375 122.72460938 C-50.23054588 123.16411771 -46.11589824 123.5865149 -42 124 C-42.13631836 122.84383179 -42.13631836 122.84383179 -42.27539062 121.66430664 C-42.68892519 118.13097185 -43.09451814 114.5967676 -43.5 111.0625 C-43.64308594 109.85013672 -43.78617187 108.63777344 -43.93359375 107.38867188 C-44.67479553 100.87668484 -45.16967382 94.55365135 -45 88 C-46.06347656 87.63648438 -46.06347656 87.63648438 -47.1484375 87.265625 C-50.4265165 85.81069679 -52.81906023 83.98586757 -55.625 81.75 C-56.77852457 80.84323846 -57.93356615 79.93840458 -59.08984375 79.03515625 C-59.71487793 78.5467627 -60.33991211 78.05836914 -60.98388672 77.55517578 C-64.67521223 74.70778616 -68.43158991 71.94881635 -72.1875 69.1875 C-72.98430176 68.60162109 -73.78110352 68.01574219 -74.60205078 67.41210938 C-88.64999968 56.99183933 -88.64999968 56.99183933 -103 47 C-101.5328827 43.44263493 -99.6293581 41.55804833 -96.625 39.1875 C-95.85414063 38.56230469 -95.08328125 37.93710938 -94.2890625 37.29296875 C-92 36 -92 36 -90.09936523 36.25244141 C-87.74207419 37.09184426 -86.11978439 38.16408882 -84.12109375 39.66796875 C-83.37327637 40.22524658 -82.62545898 40.78252441 -81.85498047 41.35668945 C-81.05721191 41.96085693 -80.25944336 42.56502441 -79.4375 43.1875 C-77.74105014 44.45594949 -76.04443027 45.72417165 -74.34765625 46.9921875 C-73.47254395 47.64928711 -72.59743164 48.30638672 -71.69580078 48.98339844 C-67.27698154 52.28890894 -62.82411057 55.54794543 -58.375 58.8125 C-56.77793167 59.9847047 -55.18151541 61.15779863 -53.5859375 62.33203125 C-52.58119385 63.07030151 -52.58119385 63.07030151 -51.55615234 63.82348633 C-50 65 -50 65 -49 66 C-50.53276566 48.65269921 -52.24454383 31.32589508 -54 14 C-52.08959948 13.1319092 -50.17139263 12.28098217 -48.25 11.4375 C-47.18265625 10.96183594 -46.1153125 10.48617187 -45.015625 9.99609375 C-41.87421323 8.95845126 -41.01426323 9.06444094 -38 10 C-37.9397464 10.84809738 -37.8794928 11.69619476 -37.81741333 12.56999207 C-37.23004365 20.62428454 -36.56115101 28.66691924 -35.80340767 36.70704174 C-35.41671186 40.83999843 -35.06036677 44.97071234 -34.77587891 49.11206055 C-34.2673952 68.49878574 -34.2673952 68.49878574 -25.86083984 84.98754883 C-22.19301615 87.90934935 -18.32577359 90.08182489 -14.06112671 92.00874329 C-11.1344338 93.41627635 -8.86789454 95.24106605 -6.375 97.3125 C-5.70210937 97.84488281 -5.02921875 98.37726563 -4.3359375 98.92578125 C-3.89507812 99.28027344 -3.45421875 99.63476562 -3 100 C4.60906355 92.39093645 9.69257461 78.38407771 12 68 C11.79458148 60.68330112 7.69731145 54.82692148 4.04345703 48.70703125 C-0.08292074 41.49075321 -3.11616751 33.65683517 -6.39547729 26.03189087 C-7.61563066 23.20917512 -8.85514305 20.39581369 -10.10180664 17.5847168 C-10.49125961 16.70388428 -10.88071259 15.82305176 -11.28196716 14.91552734 C-12.02309174 13.23958868 -12.76615128 11.56450403 -13.5113678 9.89038086 C-16 4.22606818 -16 4.22606818 -16 2 C-14.27192682 1.66104344 -12.54248026 1.32908475 -10.8125 1 C-9.84957031 0.814375 -8.88664063 0.62875 -7.89453125 0.4375 C-5.20131375 0.03042799 -2.71612318 -0.03202503 0 0 Z M20 89 C15.545 99.395 15.545 99.395 11 110 C15.67661917 115.08084521 15.67661917 115.08084521 21 118 C24.3 115.69 27.6 113.38 31 111 C28.66062389 103.33204498 25.45231194 96.22862726 22 89 C21.34 89 20.68 89 20 89 Z M63.8125 105.75 C59.64443066 109.0198195 55.44423621 112.11360683 51 115 C51.45261358 116.43931117 51.91232979 117.87638999 52.375 119.3125 C52.75785156 120.51326172 52.75785156 120.51326172 53.1484375 121.73828125 C53.98831811 124.22724528 53.98831811 124.22724528 56 127 C57.97956441 126.85966889 59.95865141 126.7125877 61.9375 126.5625 C63.03964844 126.48128906 64.14179688 126.40007812 65.27734375 126.31640625 C67.91109903 126.29581916 67.91109903 126.29581916 69 125 C69.40545923 122.10259424 69.75507395 119.22052271 70.0625 116.3125 C70.15337891 115.50876953 70.24425781 114.70503906 70.33789062 113.87695312 C70.80716006 109.56179134 71.10536836 105.34820113 71 101 C68.56983973 101 65.74382397 104.23390004 63.8125 105.75 Z M-28 102 C-27.35169636 114.03231432 -27.35169636 114.03231432 -26 126 C-20.06 126.99 -20.06 126.99 -14 128 C-12.7315625 125.64875 -12.7315625 125.64875 -11.4375 123.25 C-10.96183594 122.36828125 -10.48617187 121.4865625 -9.99609375 120.578125 C-8.86703885 117.65586526 -8.87594597 116.85360584 -10 114 C-11.65913986 112.3652426 -11.65913986 112.3652426 -13.78125 110.984375 C-14.54050781 110.45585937 -15.29976562 109.92734375 -16.08203125 109.3828125 C-16.87996094 108.84398437 -17.67789063 108.30515625 -18.5 107.75 C-19.29792969 107.19570312 -20.09585938 106.64140625 -20.91796875 106.0703125 C-24.20381783 103.36436068 -24.20381783 103.36436068 -28 102 Z M90 138 C88.83791016 138.14308594 88.83791016 138.14308594 87.65234375 138.2890625 C85.76769254 138.52173549 83.88376378 138.76024825 82 139 C81.67 143.29 81.34 147.58 81 152 C84.96 153.65 88.92 155.3 93 157 C95.33620104 153.85626008 97.66907545 150.71014811 100 147.5625 C100.66773438 146.66466797 101.33546875 145.76683594 102.0234375 144.84179688 C102.65507812 143.98779297 103.28671875 143.13378906 103.9375 142.25390625 C104.52402344 141.46314697 105.11054688 140.6723877 105.71484375 139.85766602 C107.09482243 138.2394166 107.09482243 138.2394166 107 137 C101.23528001 136.89518691 95.7147271 137.26708873 90 138 Z M-64 138 C-59.73796376 144.68364774 -55.03409271 150.87987207 -50 157 C-46.86773585 156.44279239 -44.08786062 155.74550577 -41.1875 154.4375 C-40.135625 153.963125 -39.08375 153.48875 -38 153 C-38.14084796 151.20793453 -38.28783701 149.41635083 -38.4375 147.625 C-38.51871094 146.62726563 -38.59992188 145.62953125 -38.68359375 144.6015625 C-38.84965626 142.02072387 -38.84965626 142.02072387 -40 140 C-43.19300005 139.29800359 -43.19300005 139.29800359 -47 138.875 C-47.67683838 138.79008301 -48.35367676 138.70516602 -49.05102539 138.61767578 C-54.07885301 138.02150965 -58.94649539 137.82268405 -64 138 Z M-11.75 153.5625 C-22.14247714 164.82101691 -25.62105117 176.26124469 -25.31640625 191.28125 C-24.73656488 203.52827601 -17.80571557 214.72395154 -9 223 C2.18975801 231.4770894 13.99591916 235.14549509 28 234 C36.79602058 232.31953755 43.97753423 229.55095324 51 224 C52.03125 223.2575 53.0625 222.515 54.125 221.75 C61.19032926 214.99185896 65.23480892 207.30650333 68 198 C68.19207031 197.36707031 68.38414062 196.73414063 68.58203125 196.08203125 C71.19112786 183.08531636 67.72446126 170.15081845 60.6171875 159.20703125 C52.6885965 148.38661117 41.62658499 142.03633432 28.57421875 139.53515625 C13.08870601 137.33705317 -0.60657266 143.1788518 -11.75 153.5625 Z M98 176 C95.69 178.97 93.38 181.94 91 185 C92.44688546 187.89377093 93.75081864 190.18533078 95.625 192.75 C96.07101562 193.36359375 96.51703125 193.9771875 96.9765625 194.609375 C97.31429688 195.06828125 97.65203125 195.5271875 98 196 C105.91909556 193.54234965 113.41985296 190.33181427 121 187 C118.26632529 184.81360479 115.68588702 183.28945343 112.453125 181.95703125 C111.18662109 181.43012695 111.18662109 181.43012695 109.89453125 180.89257812 C109.02183594 180.53615234 108.14914062 180.17972656 107.25 179.8125 C106.36183594 179.44447266 105.47367187 179.07644531 104.55859375 178.69726562 C102.37449286 177.79309483 100.18752185 176.89586255 98 176 Z M-61.765625 179.87109375 C-62.65507812 180.28037109 -63.54453125 180.68964844 -64.4609375 181.11132812 C-65.84152344 181.7677832 -65.84152344 181.7677832 -67.25 182.4375 C-68.18585938 182.87126953 -69.12171875 183.30503906 -70.0859375 183.75195312 C-72.3956791 184.82433315 -74.69983671 185.90726403 -77 187 C-73.92075849 190.07924151 -70.06570909 191.42065625 -66.125 193.1875 C-65.30902344 193.56841797 -64.49304688 193.94933594 -63.65234375 194.34179688 C-62.86214844 194.69693359 -62.07195312 195.05207031 -61.2578125 195.41796875 C-60.17717529 195.90946411 -60.17717529 195.90946411 -59.07470703 196.41088867 C-56.61541391 197.1092029 -55.36616849 196.91846763 -53 196 C-51.23151264 194.16463663 -51.23151264 194.16463663 -49.75 191.9375 C-49.22921875 191.20402344 -48.7084375 190.47054687 -48.171875 189.71484375 C-47.78515625 189.14894531 -47.3984375 188.58304688 -47 188 C-47.9019361 186.51180543 -48.82214129 185.03467187 -49.75 183.5625 C-50.26046875 182.73878906 -50.7709375 181.91507813 -51.296875 181.06640625 C-54.56792627 177.09763074 -57.42551348 177.84014413 -61.765625 179.87109375 Z M-49 217 C-57.99777369 226.11072034 -57.99777369 226.11072034 -63 237 C-59.56195706 236.69329496 -56.12468713 236.3786405 -52.6875 236.0625 C-51.71103516 235.97548828 -50.73457031 235.88847656 -49.72851562 235.79882812 C-48.79072266 235.71181641 -47.85292969 235.62480469 -46.88671875 235.53515625 C-46.02264404 235.456604 -45.15856934 235.37805176 -44.26831055 235.29711914 C-41.83913288 235.05212023 -41.83913288 235.05212023 -39 234 C-38.66430703 232.37548581 -38.3315204 230.75037083 -38 229.125 C-37.814375 228.22007812 -37.62875 227.31515625 -37.4375 226.3828125 C-36.93980405 224.07592097 -36.93980405 224.07592097 -37 222 C-40.96 220.35 -44.92 218.7 -49 217 Z M86.9375 218.5 C86.01839844 218.9640625 85.09929687 219.428125 84.15234375 219.90625 C83.44207031 220.2671875 82.73179687 220.628125 82 221 C82.14033111 222.97956441 82.2874123 224.95865141 82.4375 226.9375 C82.51871094 228.03964844 82.59992188 229.14179688 82.68359375 230.27734375 C82.70418084 232.91109903 82.70418084 232.91109903 84 234 C86.89740576 234.40545923 89.77947729 234.75507395 92.6875 235.0625 C93.49123047 235.15337891 94.29496094 235.24425781 95.12304688 235.33789062 C99.43820866 235.80716006 103.65179887 236.10536836 108 236 C103.53626721 228.91054205 98.56559979 222.26862292 93 216 C90.89704217 216 88.75790578 217.57827556 86.9375 218.5 Z M57 246 C56.154375 247.588125 55.30875 249.17625 54.4375 250.8125 C53.96183594 251.70582031 53.48617187 252.59914063 52.99609375 253.51953125 C51.66271667 256.06644576 51.66271667 256.06644576 53 259 C54.78033795 260.61239394 54.78033795 260.61239394 57 262.13671875 C58.2065625 263.00200195 58.2065625 263.00200195 59.4375 263.88476562 C60.283125 264.47966797 61.12875 265.07457031 62 265.6875 C62.845625 266.29400391 63.69125 266.90050781 64.5625 267.52539062 C68.00391111 270.47193682 68.00391111 270.47193682 72 272 C71.56718766 263.45765113 70.92799775 255.3546569 69 247 C65.04 246.67 61.08 246.34 57 246 Z M-21.1875 247.50390625 C-23.0746875 247.74947266 -23.0746875 247.74947266 -25 248 C-25.33970765 250.49927769 -25.67188032 252.99919595 -26 255.5 C-26.09539062 256.19609375 -26.19078125 256.8921875 -26.2890625 257.609375 C-26.9161622 262.44700129 -27.08789528 267.12181196 -27 272 C-24.22561876 270.68779266 -21.79209828 269.22517631 -19.328125 267.3984375 C-18.66425781 266.90859375 -18.00039062 266.41875 -17.31640625 265.9140625 C-16.63449219 265.40617187 -15.95257813 264.89828125 -15.25 264.375 C-14.55261719 263.859375 -13.85523438 263.34375 -13.13671875 262.8125 C-11.42244733 261.54440881 -9.71094844 260.2725711 -8 259 C-8.657575 254.44166456 -9.77950983 251.05480813 -12 247 C-15.11969403 246.90250956 -18.09929698 247.10206016 -21.1875 247.50390625 Z M17.375 259.5 C16.55773437 260.1496875 15.74046875 260.799375 14.8984375 261.46875 C14.27195313 261.9740625 13.64546875 262.479375 13 263 C15.45765035 270.91909556 18.66818573 278.41985296 22 286 C25.21844343 282.26501627 26.8911388 278.00563476 28.75 273.5 C29.07871094 272.74074219 29.40742188 271.98148437 29.74609375 271.19921875 C30.20435547 270.09513672 30.20435547 270.09513672 30.671875 268.96875 C30.9512793 268.30294922 31.23068359 267.63714844 31.51855469 266.95117188 C32.10015962 264.59407927 31.83430474 263.26193277 31 261 C29.46551571 259.45564211 29.46551571 259.45564211 27.5625 258.25 C26.94503906 257.82203125 26.32757813 257.3940625 25.69140625 256.953125 C22.00600717 254.87636432 20.34690142 257.12247887 17.375 259.5 Z " fill="#000000" transform="translate(234,69)"/>
</svg>
